<mxfile host="app.diagrams.net" agent="Mozilla/5.0 (X11; Linux x86_64; rv:128.0) Gecko/20100101 Firefox/128.0" version="27.1.4">
  <diagram name="Page-1" id="ZpzENlLLRMtF2tAaUuwu">
    <mxGraphModel dx="8127" dy="2857" grid="1" gridSize="10" guides="1" tooltips="1" connect="1" arrows="1" fold="1" page="1" pageScale="1" pageWidth="1654" pageHeight="1169" math="0" shadow="0">
      <root>
        <mxCell id="0" />
        <mxCell id="1" parent="0" />
        <mxCell id="PONg3bb0-MsaRDzlcWa--1" value="Server" style="text;html=1;align=center;verticalAlign=middle;resizable=0;points=[];autosize=1;strokeColor=none;fillColor=none;fontSize=80;fontStyle=1" parent="1" vertex="1">
          <mxGeometry x="-1265" y="-490" width="260" height="110" as="geometry" />
        </mxCell>
        <mxCell id="PONg3bb0-MsaRDzlcWa--3" value="ConfigurationAdapter" style="swimlane;fontStyle=0;childLayout=stackLayout;horizontal=1;startSize=26;fillColor=none;horizontalStack=0;resizeParent=1;resizeParentMax=0;resizeLast=0;collapsible=1;marginBottom=0;whiteSpace=wrap;html=1;" parent="1" vertex="1">
          <mxGeometry x="-610" y="205" width="160" height="70" as="geometry" />
        </mxCell>
        <mxCell id="PONg3bb0-MsaRDzlcWa--4" value="&lt;div&gt;+ ChangeConfiguration()&lt;/div&gt;&lt;div&gt;+ GetConfiguration()&lt;br&gt;&lt;/div&gt;" style="text;strokeColor=none;fillColor=none;align=left;verticalAlign=top;spacingLeft=4;spacingRight=4;overflow=hidden;rotatable=0;points=[[0,0.5],[1,0.5]];portConstraint=eastwest;whiteSpace=wrap;html=1;" parent="PONg3bb0-MsaRDzlcWa--3" vertex="1">
          <mxGeometry y="26" width="160" height="44" as="geometry" />
        </mxCell>
        <mxCell id="PONg3bb0-MsaRDzlcWa--10" value="ConfigurationInterfaces" style="swimlane;fontStyle=0;childLayout=stackLayout;horizontal=1;startSize=26;fillColor=none;horizontalStack=0;resizeParent=1;resizeParentMax=0;resizeLast=0;collapsible=1;marginBottom=0;whiteSpace=wrap;html=1;" parent="1" vertex="1">
          <mxGeometry x="-310" y="429" width="160" height="76" as="geometry" />
        </mxCell>
        <mxCell id="PONg3bb0-MsaRDzlcWa--11" value="&lt;div&gt;+ ChangeConfiguration()&lt;/div&gt;&lt;div&gt;+ GetConfiguration()&lt;br&gt;&lt;/div&gt;" style="text;strokeColor=none;fillColor=none;align=left;verticalAlign=top;spacingLeft=4;spacingRight=4;overflow=hidden;rotatable=0;points=[[0,0.5],[1,0.5]];portConstraint=eastwest;whiteSpace=wrap;html=1;" parent="PONg3bb0-MsaRDzlcWa--10" vertex="1">
          <mxGeometry y="26" width="160" height="50" as="geometry" />
        </mxCell>
        <mxCell id="PONg3bb0-MsaRDzlcWa--16" value="BaseDbusObject" style="swimlane;fontStyle=0;childLayout=stackLayout;horizontal=1;startSize=26;fillColor=none;horizontalStack=0;resizeParent=1;resizeParentMax=0;resizeLast=0;collapsible=1;marginBottom=0;whiteSpace=wrap;html=1;" parent="1" vertex="1">
          <mxGeometry x="-610" y="375" width="160" height="70" as="geometry" />
        </mxCell>
        <mxCell id="PONg3bb0-MsaRDzlcWa--17" value="&lt;div&gt;+ ChangeConfiguration()&lt;/div&gt;&lt;div&gt;+ GetConfiguration()&lt;br&gt;&lt;/div&gt;" style="text;strokeColor=none;fillColor=none;align=left;verticalAlign=top;spacingLeft=4;spacingRight=4;overflow=hidden;rotatable=0;points=[[0,0.5],[1,0.5]];portConstraint=eastwest;whiteSpace=wrap;html=1;" parent="PONg3bb0-MsaRDzlcWa--16" vertex="1">
          <mxGeometry y="26" width="160" height="44" as="geometry" />
        </mxCell>
        <mxCell id="PONg3bb0-MsaRDzlcWa--19" value="Extends" style="endArrow=block;endSize=16;endFill=0;html=1;rounded=0;exitX=0.5;exitY=0;exitDx=0;exitDy=0;entryX=0.503;entryY=1.029;entryDx=0;entryDy=0;entryPerimeter=0;" parent="1" source="PONg3bb0-MsaRDzlcWa--16" target="PONg3bb0-MsaRDzlcWa--4" edge="1">
          <mxGeometry width="160" relative="1" as="geometry">
            <mxPoint x="-330" y="355" as="sourcePoint" />
            <mxPoint x="-270" y="335" as="targetPoint" />
          </mxGeometry>
        </mxCell>
        <mxCell id="PONg3bb0-MsaRDzlcWa--21" value="" style="endArrow=open;endSize=12;dashed=1;html=1;rounded=0;exitX=0;exitY=0.5;exitDx=0;exitDy=0;entryX=1;entryY=0.5;entryDx=0;entryDy=0;" parent="1" source="PONg3bb0-MsaRDzlcWa--11" target="PONg3bb0-MsaRDzlcWa--17" edge="1">
          <mxGeometry width="160" relative="1" as="geometry">
            <mxPoint x="-890" y="455" as="sourcePoint" />
            <mxPoint x="-730" y="455" as="targetPoint" />
          </mxGeometry>
        </mxCell>
        <mxCell id="PONg3bb0-MsaRDzlcWa--22" value="BaseReader" style="swimlane;fontStyle=0;childLayout=stackLayout;horizontal=1;startSize=26;fillColor=none;horizontalStack=0;resizeParent=1;resizeParentMax=0;resizeLast=0;collapsible=1;marginBottom=0;whiteSpace=wrap;html=1;" parent="1" vertex="1">
          <mxGeometry x="-1800" y="350" width="160" height="70" as="geometry" />
        </mxCell>
        <mxCell id="PONg3bb0-MsaRDzlcWa--23" value="&lt;div&gt;+ nextField()&lt;br&gt;&lt;/div&gt;" style="text;strokeColor=none;fillColor=none;align=left;verticalAlign=top;spacingLeft=4;spacingRight=4;overflow=hidden;rotatable=0;points=[[0,0.5],[1,0.5]];portConstraint=eastwest;whiteSpace=wrap;html=1;" parent="PONg3bb0-MsaRDzlcWa--22" vertex="1">
          <mxGeometry y="26" width="160" height="44" as="geometry" />
        </mxCell>
        <mxCell id="PONg3bb0-MsaRDzlcWa--24" value="Extends" style="endArrow=block;endSize=16;endFill=0;html=1;rounded=0;entryX=0.501;entryY=0.975;entryDx=0;entryDy=0;entryPerimeter=0;" parent="1" target="PONg3bb0-MsaRDzlcWa--23" edge="1">
          <mxGeometry width="160" relative="1" as="geometry">
            <mxPoint x="-1720" y="540" as="sourcePoint" />
            <mxPoint x="-1640" y="560" as="targetPoint" />
          </mxGeometry>
        </mxCell>
        <mxCell id="PONg3bb0-MsaRDzlcWa--25" value="ConcreteReader" style="swimlane;fontStyle=0;childLayout=stackLayout;horizontal=1;startSize=26;fillColor=none;horizontalStack=0;resizeParent=1;resizeParentMax=0;resizeLast=0;collapsible=1;marginBottom=0;whiteSpace=wrap;html=1;" parent="1" vertex="1">
          <mxGeometry x="-1800" y="540" width="160" height="70" as="geometry" />
        </mxCell>
        <mxCell id="PONg3bb0-MsaRDzlcWa--26" value="&lt;div&gt;+ nextField()&lt;br&gt;&lt;/div&gt;" style="text;strokeColor=none;fillColor=none;align=left;verticalAlign=top;spacingLeft=4;spacingRight=4;overflow=hidden;rotatable=0;points=[[0,0.5],[1,0.5]];portConstraint=eastwest;whiteSpace=wrap;html=1;" parent="PONg3bb0-MsaRDzlcWa--25" vertex="1">
          <mxGeometry y="26" width="160" height="44" as="geometry" />
        </mxCell>
        <mxCell id="PONg3bb0-MsaRDzlcWa--27" value="ReaderFactory" style="swimlane;fontStyle=0;childLayout=stackLayout;horizontal=1;startSize=26;fillColor=none;horizontalStack=0;resizeParent=1;resizeParentMax=0;resizeLast=0;collapsible=1;marginBottom=0;whiteSpace=wrap;html=1;" parent="1" vertex="1">
          <mxGeometry x="-1800" y="185" width="160" height="70" as="geometry" />
        </mxCell>
        <mxCell id="PONg3bb0-MsaRDzlcWa--28" value="&lt;div&gt;+ create()&lt;/div&gt;" style="text;strokeColor=none;fillColor=none;align=left;verticalAlign=top;spacingLeft=4;spacingRight=4;overflow=hidden;rotatable=0;points=[[0,0.5],[1,0.5]];portConstraint=eastwest;whiteSpace=wrap;html=1;" parent="PONg3bb0-MsaRDzlcWa--27" vertex="1">
          <mxGeometry y="26" width="160" height="44" as="geometry" />
        </mxCell>
        <mxCell id="PONg3bb0-MsaRDzlcWa--29" value="" style="endArrow=open;endSize=12;dashed=1;html=1;rounded=0;exitX=0.499;exitY=1.038;exitDx=0;exitDy=0;exitPerimeter=0;entryX=0.5;entryY=0;entryDx=0;entryDy=0;" parent="1" source="PONg3bb0-MsaRDzlcWa--28" target="PONg3bb0-MsaRDzlcWa--22" edge="1">
          <mxGeometry width="160" relative="1" as="geometry">
            <mxPoint x="-1557" y="310" as="sourcePoint" />
            <mxPoint x="-1397" y="310" as="targetPoint" />
          </mxGeometry>
        </mxCell>
        <mxCell id="PONg3bb0-MsaRDzlcWa--30" value="BaseDbusObjectBuilder" style="swimlane;fontStyle=0;childLayout=stackLayout;horizontal=1;startSize=26;fillColor=none;horizontalStack=0;resizeParent=1;resizeParentMax=0;resizeLast=0;collapsible=1;marginBottom=0;whiteSpace=wrap;html=1;" parent="1" vertex="1">
          <mxGeometry x="-1410" y="505" width="160" height="70" as="geometry" />
        </mxCell>
        <mxCell id="PONg3bb0-MsaRDzlcWa--31" value="&lt;div&gt;+ build()&lt;/div&gt;&lt;div&gt;+getBuiltConfig()&lt;br&gt;&lt;/div&gt;" style="text;strokeColor=none;fillColor=none;align=left;verticalAlign=top;spacingLeft=4;spacingRight=4;overflow=hidden;rotatable=0;points=[[0,0.5],[1,0.5]];portConstraint=eastwest;whiteSpace=wrap;html=1;" parent="PONg3bb0-MsaRDzlcWa--30" vertex="1">
          <mxGeometry y="26" width="160" height="44" as="geometry" />
        </mxCell>
        <mxCell id="PONg3bb0-MsaRDzlcWa--32" value="" style="endArrow=diamondThin;endFill=0;endSize=24;html=1;rounded=0;exitX=1;exitY=0.5;exitDx=0;exitDy=0;entryX=0;entryY=0.5;entryDx=0;entryDy=0;edgeStyle=orthogonalEdgeStyle;" parent="1" source="PONg3bb0-MsaRDzlcWa--23" target="PONg3bb0-MsaRDzlcWa--31" edge="1">
          <mxGeometry width="160" relative="1" as="geometry">
            <mxPoint x="-1620" y="375" as="sourcePoint" />
            <mxPoint x="-1460" y="375" as="targetPoint" />
          </mxGeometry>
        </mxCell>
        <mxCell id="PONg3bb0-MsaRDzlcWa--33" value="" style="endArrow=block;endSize=16;endFill=0;html=1;rounded=0;entryX=0.503;entryY=1.051;entryDx=0;entryDy=0;entryPerimeter=0;" parent="1" target="PONg3bb0-MsaRDzlcWa--31" edge="1">
          <mxGeometry width="160" relative="1" as="geometry">
            <mxPoint x="-1330" y="755" as="sourcePoint" />
            <mxPoint x="-1280" y="805" as="targetPoint" />
          </mxGeometry>
        </mxCell>
        <mxCell id="PONg3bb0-MsaRDzlcWa--34" value="DbusObjectBuilder" style="swimlane;fontStyle=0;childLayout=stackLayout;horizontal=1;startSize=26;fillColor=none;horizontalStack=0;resizeParent=1;resizeParentMax=0;resizeLast=0;collapsible=1;marginBottom=0;whiteSpace=wrap;html=1;" parent="1" vertex="1">
          <mxGeometry x="-1400" y="755" width="160" height="70" as="geometry" />
        </mxCell>
        <mxCell id="PONg3bb0-MsaRDzlcWa--35" value="&lt;div&gt;+ build()&lt;/div&gt;&lt;div&gt;+getBuiltConfig()&lt;br&gt;&lt;/div&gt;" style="text;strokeColor=none;fillColor=none;align=left;verticalAlign=top;spacingLeft=4;spacingRight=4;overflow=hidden;rotatable=0;points=[[0,0.5],[1,0.5]];portConstraint=eastwest;whiteSpace=wrap;html=1;" parent="PONg3bb0-MsaRDzlcWa--34" vertex="1">
          <mxGeometry y="26" width="160" height="44" as="geometry" />
        </mxCell>
        <mxCell id="PONg3bb0-MsaRDzlcWa--36" value="ServiceBuilder" style="swimlane;fontStyle=0;childLayout=stackLayout;horizontal=1;startSize=26;fillColor=none;horizontalStack=0;resizeParent=1;resizeParentMax=0;resizeLast=0;collapsible=1;marginBottom=0;whiteSpace=wrap;html=1;" parent="1" vertex="1">
          <mxGeometry x="-1410" y="135" width="160" height="70" as="geometry" />
        </mxCell>
        <mxCell id="PONg3bb0-MsaRDzlcWa--37" value="&lt;div&gt;+ build()&lt;/div&gt;&lt;div&gt;+getConfiguratedObjects()&lt;br&gt;&lt;/div&gt;" style="text;strokeColor=none;fillColor=none;align=left;verticalAlign=top;spacingLeft=4;spacingRight=4;overflow=hidden;rotatable=0;points=[[0,0.5],[1,0.5]];portConstraint=eastwest;whiteSpace=wrap;html=1;" parent="PONg3bb0-MsaRDzlcWa--36" vertex="1">
          <mxGeometry y="26" width="160" height="44" as="geometry" />
        </mxCell>
        <mxCell id="PONg3bb0-MsaRDzlcWa--38" value="" style="endArrow=diamondThin;endFill=0;endSize=24;html=1;rounded=0;exitX=1;exitY=0.25;exitDx=0;exitDy=0;entryX=0;entryY=0.25;entryDx=0;entryDy=0;edgeStyle=orthogonalEdgeStyle;" parent="1" source="PONg3bb0-MsaRDzlcWa--22" target="PONg3bb0-MsaRDzlcWa--36" edge="1">
          <mxGeometry width="160" relative="1" as="geometry">
            <mxPoint x="-1470" y="325" as="sourcePoint" />
            <mxPoint x="-1310" y="325" as="targetPoint" />
          </mxGeometry>
        </mxCell>
        <mxCell id="PONg3bb0-MsaRDzlcWa--39" value="" style="endArrow=diamondThin;endFill=0;endSize=24;html=1;rounded=0;exitX=0;exitY=0.5;exitDx=0;exitDy=0;entryX=1;entryY=0.5;entryDx=0;entryDy=0;edgeStyle=orthogonalEdgeStyle;" parent="1" source="PONg3bb0-MsaRDzlcWa--17" target="PONg3bb0-MsaRDzlcWa--37" edge="1">
          <mxGeometry width="160" relative="1" as="geometry">
            <mxPoint x="-1120" y="305" as="sourcePoint" />
            <mxPoint x="-960" y="305" as="targetPoint" />
          </mxGeometry>
        </mxCell>
        <mxCell id="PONg3bb0-MsaRDzlcWa--40" value="1..*" style="edgeLabel;html=1;align=center;verticalAlign=middle;resizable=0;points=[];" parent="PONg3bb0-MsaRDzlcWa--39" vertex="1" connectable="0">
          <mxGeometry x="0.0285" y="-2" relative="1" as="geometry">
            <mxPoint x="-262" y="-115" as="offset" />
          </mxGeometry>
        </mxCell>
        <mxCell id="PONg3bb0-MsaRDzlcWa--41" value="ServiceDirector" style="swimlane;fontStyle=0;childLayout=stackLayout;horizontal=1;startSize=26;fillColor=none;horizontalStack=0;resizeParent=1;resizeParentMax=0;resizeLast=0;collapsible=1;marginBottom=0;whiteSpace=wrap;html=1;" parent="1" vertex="1">
          <mxGeometry x="-1410" y="-115" width="160" height="70" as="geometry" />
        </mxCell>
        <mxCell id="PONg3bb0-MsaRDzlcWa--42" value="&lt;div&gt;+ build()&lt;/div&gt;&lt;div&gt;+getConfiguratedObjects()&lt;br&gt;&lt;/div&gt;" style="text;strokeColor=none;fillColor=none;align=left;verticalAlign=top;spacingLeft=4;spacingRight=4;overflow=hidden;rotatable=0;points=[[0,0.5],[1,0.5]];portConstraint=eastwest;whiteSpace=wrap;html=1;" parent="PONg3bb0-MsaRDzlcWa--41" vertex="1">
          <mxGeometry y="26" width="160" height="44" as="geometry" />
        </mxCell>
        <mxCell id="PONg3bb0-MsaRDzlcWa--43" value="Use" style="endArrow=open;endSize=12;dashed=1;html=1;rounded=0;exitX=0.503;exitY=1.074;exitDx=0;exitDy=0;exitPerimeter=0;entryX=0.5;entryY=0;entryDx=0;entryDy=0;" parent="1" source="PONg3bb0-MsaRDzlcWa--42" target="PONg3bb0-MsaRDzlcWa--36" edge="1">
          <mxGeometry width="160" relative="1" as="geometry">
            <mxPoint x="-1300" y="55" as="sourcePoint" />
            <mxPoint x="-1140" y="55" as="targetPoint" />
          </mxGeometry>
        </mxCell>
        <mxCell id="PONg3bb0-MsaRDzlcWa--44" value="Service" style="swimlane;fontStyle=0;childLayout=stackLayout;horizontal=1;startSize=26;fillColor=none;horizontalStack=0;resizeParent=1;resizeParentMax=0;resizeLast=0;collapsible=1;marginBottom=0;whiteSpace=wrap;html=1;" parent="1" vertex="1">
          <mxGeometry x="-950" y="-25" width="160" height="70" as="geometry" />
        </mxCell>
        <mxCell id="PONg3bb0-MsaRDzlcWa--45" value="+run()" style="text;strokeColor=none;fillColor=none;align=left;verticalAlign=top;spacingLeft=4;spacingRight=4;overflow=hidden;rotatable=0;points=[[0,0.5],[1,0.5]];portConstraint=eastwest;whiteSpace=wrap;html=1;" parent="PONg3bb0-MsaRDzlcWa--44" vertex="1">
          <mxGeometry y="26" width="160" height="44" as="geometry" />
        </mxCell>
        <mxCell id="PONg3bb0-MsaRDzlcWa--47" value="" style="endArrow=diamondThin;endFill=0;endSize=24;html=1;rounded=0;exitX=0;exitY=0.25;exitDx=0;exitDy=0;entryX=1;entryY=0.5;entryDx=0;entryDy=0;edgeStyle=orthogonalEdgeStyle;" parent="1" source="PONg3bb0-MsaRDzlcWa--16" target="PONg3bb0-MsaRDzlcWa--45" edge="1">
          <mxGeometry width="160" relative="1" as="geometry">
            <mxPoint x="-290" y="545" as="sourcePoint" />
            <mxPoint x="-930" y="305" as="targetPoint" />
          </mxGeometry>
        </mxCell>
        <mxCell id="PONg3bb0-MsaRDzlcWa--48" value="1..*" style="edgeLabel;html=1;align=center;verticalAlign=middle;resizable=0;points=[];" parent="PONg3bb0-MsaRDzlcWa--47" vertex="1" connectable="0">
          <mxGeometry x="0.0285" y="-2" relative="1" as="geometry">
            <mxPoint x="-52" y="-190" as="offset" />
          </mxGeometry>
        </mxCell>
        <mxCell id="PONg3bb0-MsaRDzlcWa--49" value="ServiceManager" style="swimlane;fontStyle=0;childLayout=stackLayout;horizontal=1;startSize=26;fillColor=none;horizontalStack=0;resizeParent=1;resizeParentMax=0;resizeLast=0;collapsible=1;marginBottom=0;whiteSpace=wrap;html=1;" parent="1" vertex="1">
          <mxGeometry x="-1080" y="-295" width="160" height="70" as="geometry" />
        </mxCell>
        <mxCell id="PONg3bb0-MsaRDzlcWa--50" value="+runApplication()" style="text;strokeColor=none;fillColor=none;align=left;verticalAlign=top;spacingLeft=4;spacingRight=4;overflow=hidden;rotatable=0;points=[[0,0.5],[1,0.5]];portConstraint=eastwest;whiteSpace=wrap;html=1;" parent="PONg3bb0-MsaRDzlcWa--49" vertex="1">
          <mxGeometry y="26" width="160" height="44" as="geometry" />
        </mxCell>
        <mxCell id="ysvRLKor3WXFB_mMOgGZ-1" value="" style="endArrow=diamondThin;endFill=0;endSize=24;html=1;rounded=0;entryX=0.5;entryY=0;entryDx=0;entryDy=0;exitX=1;exitY=0.5;exitDx=0;exitDy=0;edgeStyle=orthogonalEdgeStyle;" parent="1" source="PONg3bb0-MsaRDzlcWa--50" target="PONg3bb0-MsaRDzlcWa--44" edge="1">
          <mxGeometry width="160" relative="1" as="geometry">
            <mxPoint x="-1030" y="-105" as="sourcePoint" />
            <mxPoint x="-870" y="-105" as="targetPoint" />
          </mxGeometry>
        </mxCell>
        <mxCell id="ysvRLKor3WXFB_mMOgGZ-2" value="Use" style="endArrow=open;endSize=12;dashed=1;html=1;rounded=0;exitX=0;exitY=0.25;exitDx=0;exitDy=0;entryX=0.25;entryY=0;entryDx=0;entryDy=0;edgeStyle=orthogonalEdgeStyle;" parent="1" source="PONg3bb0-MsaRDzlcWa--49" target="PONg3bb0-MsaRDzlcWa--41" edge="1">
          <mxGeometry width="160" relative="1" as="geometry">
            <mxPoint x="-1500" y="-195" as="sourcePoint" />
            <mxPoint x="-1340" y="-195" as="targetPoint" />
          </mxGeometry>
        </mxCell>
        <mxCell id="ysvRLKor3WXFB_mMOgGZ-3" value="" style="endArrow=diamondThin;endFill=0;endSize=24;html=1;rounded=0;entryX=0.75;entryY=0;entryDx=0;entryDy=0;exitX=0;exitY=0.5;exitDx=0;exitDy=0;edgeStyle=orthogonalEdgeStyle;" parent="1" source="PONg3bb0-MsaRDzlcWa--50" target="PONg3bb0-MsaRDzlcWa--36" edge="1">
          <mxGeometry width="160" relative="1" as="geometry">
            <mxPoint x="-1240" y="25" as="sourcePoint" />
            <mxPoint x="-1080" y="25" as="targetPoint" />
            <Array as="points">
              <mxPoint x="-1200" y="-247" />
              <mxPoint x="-1200" y="75" />
              <mxPoint x="-1290" y="75" />
            </Array>
          </mxGeometry>
        </mxCell>
        <mxCell id="ysvRLKor3WXFB_mMOgGZ-4" value="Client" style="text;html=1;align=center;verticalAlign=middle;resizable=0;points=[];autosize=1;strokeColor=none;fillColor=none;fontSize=80;fontStyle=1" parent="1" vertex="1">
          <mxGeometry x="-3235" y="-490" width="230" height="110" as="geometry" />
        </mxCell>
        <mxCell id="ysvRLKor3WXFB_mMOgGZ-5" value="" style="endArrow=diamondThin;endFill=0;endSize=24;html=1;rounded=0;entryX=0;entryY=0.5;entryDx=0;entryDy=0;exitX=0;exitY=0.25;exitDx=0;exitDy=0;edgeStyle=orthogonalEdgeStyle;" parent="1" source="PONg3bb0-MsaRDzlcWa--30" target="PONg3bb0-MsaRDzlcWa--37" edge="1">
          <mxGeometry width="160" relative="1" as="geometry">
            <mxPoint x="-1400" y="390" as="sourcePoint" />
            <mxPoint x="-1240" y="390" as="targetPoint" />
            <Array as="points">
              <mxPoint x="-1480" y="523" />
              <mxPoint x="-1480" y="183" />
            </Array>
          </mxGeometry>
        </mxCell>
        <mxCell id="ysvRLKor3WXFB_mMOgGZ-6" value="ConfigurationAdapter" style="swimlane;fontStyle=0;childLayout=stackLayout;horizontal=1;startSize=26;fillColor=none;horizontalStack=0;resizeParent=1;resizeParentMax=0;resizeLast=0;collapsible=1;marginBottom=0;whiteSpace=wrap;html=1;" parent="1" vertex="1">
          <mxGeometry x="-2770" y="220" width="160" height="70" as="geometry" />
        </mxCell>
        <mxCell id="ysvRLKor3WXFB_mMOgGZ-7" value="&lt;div&gt;+ ChangeConfiguration()&lt;/div&gt;&lt;div&gt;+ GetConfiguration()&lt;br&gt;&lt;/div&gt;" style="text;strokeColor=none;fillColor=none;align=left;verticalAlign=top;spacingLeft=4;spacingRight=4;overflow=hidden;rotatable=0;points=[[0,0.5],[1,0.5]];portConstraint=eastwest;whiteSpace=wrap;html=1;" parent="ysvRLKor3WXFB_mMOgGZ-6" vertex="1">
          <mxGeometry y="26" width="160" height="44" as="geometry" />
        </mxCell>
        <mxCell id="ysvRLKor3WXFB_mMOgGZ-8" value="ConfigurationInterfaces" style="swimlane;fontStyle=0;childLayout=stackLayout;horizontal=1;startSize=26;fillColor=none;horizontalStack=0;resizeParent=1;resizeParentMax=0;resizeLast=0;collapsible=1;marginBottom=0;whiteSpace=wrap;html=1;" parent="1" vertex="1">
          <mxGeometry x="-2470" y="444" width="160" height="76" as="geometry" />
        </mxCell>
        <mxCell id="ysvRLKor3WXFB_mMOgGZ-9" value="&lt;div&gt;+ ChangeConfiguration()&lt;/div&gt;&lt;div&gt;+ GetConfiguration()&lt;br&gt;&lt;/div&gt;" style="text;strokeColor=none;fillColor=none;align=left;verticalAlign=top;spacingLeft=4;spacingRight=4;overflow=hidden;rotatable=0;points=[[0,0.5],[1,0.5]];portConstraint=eastwest;whiteSpace=wrap;html=1;" parent="ysvRLKor3WXFB_mMOgGZ-8" vertex="1">
          <mxGeometry y="26" width="160" height="50" as="geometry" />
        </mxCell>
        <mxCell id="ysvRLKor3WXFB_mMOgGZ-10" value="BaseProxy" style="swimlane;fontStyle=0;childLayout=stackLayout;horizontal=1;startSize=26;fillColor=none;horizontalStack=0;resizeParent=1;resizeParentMax=0;resizeLast=0;collapsible=1;marginBottom=0;whiteSpace=wrap;html=1;" parent="1" vertex="1">
          <mxGeometry x="-2770" y="390" width="160" height="70" as="geometry" />
        </mxCell>
        <mxCell id="ysvRLKor3WXFB_mMOgGZ-11" value="&lt;div&gt;+ ChangeConfiguration()&lt;/div&gt;&lt;div&gt;+ GetConfiguration()&lt;br&gt;&lt;/div&gt;" style="text;strokeColor=none;fillColor=none;align=left;verticalAlign=top;spacingLeft=4;spacingRight=4;overflow=hidden;rotatable=0;points=[[0,0.5],[1,0.5]];portConstraint=eastwest;whiteSpace=wrap;html=1;" parent="ysvRLKor3WXFB_mMOgGZ-10" vertex="1">
          <mxGeometry y="26" width="160" height="44" as="geometry" />
        </mxCell>
        <mxCell id="ysvRLKor3WXFB_mMOgGZ-12" value="Extends" style="endArrow=block;endSize=16;endFill=0;html=1;rounded=0;exitX=0.5;exitY=0;exitDx=0;exitDy=0;entryX=0.503;entryY=1.029;entryDx=0;entryDy=0;entryPerimeter=0;" parent="1" source="ysvRLKor3WXFB_mMOgGZ-10" target="ysvRLKor3WXFB_mMOgGZ-7" edge="1">
          <mxGeometry width="160" relative="1" as="geometry">
            <mxPoint x="-2490" y="370" as="sourcePoint" />
            <mxPoint x="-2430" y="350" as="targetPoint" />
          </mxGeometry>
        </mxCell>
        <mxCell id="ysvRLKor3WXFB_mMOgGZ-13" value="" style="endArrow=open;endSize=12;dashed=1;html=1;rounded=0;exitX=0;exitY=0.5;exitDx=0;exitDy=0;entryX=1;entryY=0.5;entryDx=0;entryDy=0;" parent="1" source="ysvRLKor3WXFB_mMOgGZ-9" target="ysvRLKor3WXFB_mMOgGZ-11" edge="1">
          <mxGeometry width="160" relative="1" as="geometry">
            <mxPoint x="-3050" y="470" as="sourcePoint" />
            <mxPoint x="-2890" y="470" as="targetPoint" />
          </mxGeometry>
        </mxCell>
        <mxCell id="ysvRLKor3WXFB_mMOgGZ-14" value="BaseProxyReader" style="swimlane;fontStyle=0;childLayout=stackLayout;horizontal=1;startSize=26;fillColor=none;horizontalStack=0;resizeParent=1;resizeParentMax=0;resizeLast=0;collapsible=1;marginBottom=0;whiteSpace=wrap;html=1;" parent="1" vertex="1">
          <mxGeometry x="-3960" y="365" width="160" height="70" as="geometry" />
        </mxCell>
        <mxCell id="ysvRLKor3WXFB_mMOgGZ-15" value="&lt;div&gt;+ nextObject()&lt;br&gt;&lt;/div&gt;" style="text;strokeColor=none;fillColor=none;align=left;verticalAlign=top;spacingLeft=4;spacingRight=4;overflow=hidden;rotatable=0;points=[[0,0.5],[1,0.5]];portConstraint=eastwest;whiteSpace=wrap;html=1;" parent="ysvRLKor3WXFB_mMOgGZ-14" vertex="1">
          <mxGeometry y="26" width="160" height="44" as="geometry" />
        </mxCell>
        <mxCell id="ysvRLKor3WXFB_mMOgGZ-16" value="Extends" style="endArrow=block;endSize=16;endFill=0;html=1;rounded=0;entryX=0.5;entryY=1.091;entryDx=0;entryDy=0;entryPerimeter=0;exitX=0.5;exitY=0;exitDx=0;exitDy=0;" parent="1" target="ysvRLKor3WXFB_mMOgGZ-15" edge="1" source="4_Apw1o6KSsV3HFSU-_T-3">
          <mxGeometry width="160" relative="1" as="geometry">
            <mxPoint x="-3880" y="520" as="sourcePoint" />
            <mxPoint x="-4190" y="530" as="targetPoint" />
          </mxGeometry>
        </mxCell>
        <mxCell id="ysvRLKor3WXFB_mMOgGZ-17" value="PathTypeJsonReader" style="swimlane;fontStyle=0;childLayout=stackLayout;horizontal=1;startSize=26;fillColor=none;horizontalStack=0;resizeParent=1;resizeParentMax=0;resizeLast=0;collapsible=1;marginBottom=0;whiteSpace=wrap;html=1;" parent="1" vertex="1">
          <mxGeometry x="-3960" y="710" width="160" height="70" as="geometry" />
        </mxCell>
        <mxCell id="ysvRLKor3WXFB_mMOgGZ-18" value="&lt;div&gt;+ nextField()&lt;br&gt;&lt;/div&gt;" style="text;strokeColor=none;fillColor=none;align=left;verticalAlign=top;spacingLeft=4;spacingRight=4;overflow=hidden;rotatable=0;points=[[0,0.5],[1,0.5]];portConstraint=eastwest;whiteSpace=wrap;html=1;" parent="ysvRLKor3WXFB_mMOgGZ-17" vertex="1">
          <mxGeometry y="26" width="160" height="44" as="geometry" />
        </mxCell>
        <mxCell id="ysvRLKor3WXFB_mMOgGZ-19" value="ReaderFactory" style="swimlane;fontStyle=0;childLayout=stackLayout;horizontal=1;startSize=26;fillColor=none;horizontalStack=0;resizeParent=1;resizeParentMax=0;resizeLast=0;collapsible=1;marginBottom=0;whiteSpace=wrap;html=1;" parent="1" vertex="1">
          <mxGeometry x="-3960" y="200" width="160" height="70" as="geometry" />
        </mxCell>
        <mxCell id="ysvRLKor3WXFB_mMOgGZ-20" value="&lt;div&gt;+ create()&lt;/div&gt;" style="text;strokeColor=none;fillColor=none;align=left;verticalAlign=top;spacingLeft=4;spacingRight=4;overflow=hidden;rotatable=0;points=[[0,0.5],[1,0.5]];portConstraint=eastwest;whiteSpace=wrap;html=1;" parent="ysvRLKor3WXFB_mMOgGZ-19" vertex="1">
          <mxGeometry y="26" width="160" height="44" as="geometry" />
        </mxCell>
        <mxCell id="ysvRLKor3WXFB_mMOgGZ-21" value="" style="endArrow=open;endSize=12;dashed=1;html=1;rounded=0;exitX=0.499;exitY=1.038;exitDx=0;exitDy=0;exitPerimeter=0;entryX=0.5;entryY=0;entryDx=0;entryDy=0;" parent="1" source="ysvRLKor3WXFB_mMOgGZ-20" target="ysvRLKor3WXFB_mMOgGZ-14" edge="1">
          <mxGeometry width="160" relative="1" as="geometry">
            <mxPoint x="-3717" y="325" as="sourcePoint" />
            <mxPoint x="-3557" y="325" as="targetPoint" />
          </mxGeometry>
        </mxCell>
        <mxCell id="ysvRLKor3WXFB_mMOgGZ-28" value="ProxiesBuilder" style="swimlane;fontStyle=0;childLayout=stackLayout;horizontal=1;startSize=26;fillColor=none;horizontalStack=0;resizeParent=1;resizeParentMax=0;resizeLast=0;collapsible=1;marginBottom=0;whiteSpace=wrap;html=1;" parent="1" vertex="1">
          <mxGeometry x="-3570" y="150" width="160" height="70" as="geometry" />
        </mxCell>
        <mxCell id="ysvRLKor3WXFB_mMOgGZ-29" value="&lt;div&gt;+ build()&lt;/div&gt;&lt;div&gt;+getConfiguratedObjects()&lt;br&gt;&lt;/div&gt;" style="text;strokeColor=none;fillColor=none;align=left;verticalAlign=top;spacingLeft=4;spacingRight=4;overflow=hidden;rotatable=0;points=[[0,0.5],[1,0.5]];portConstraint=eastwest;whiteSpace=wrap;html=1;" parent="ysvRLKor3WXFB_mMOgGZ-28" vertex="1">
          <mxGeometry y="26" width="160" height="44" as="geometry" />
        </mxCell>
        <mxCell id="ysvRLKor3WXFB_mMOgGZ-30" value="" style="endArrow=diamondThin;endFill=0;endSize=24;html=1;rounded=0;exitX=1;exitY=0.25;exitDx=0;exitDy=0;entryX=0;entryY=0.25;entryDx=0;entryDy=0;edgeStyle=orthogonalEdgeStyle;" parent="1" source="ysvRLKor3WXFB_mMOgGZ-14" target="ysvRLKor3WXFB_mMOgGZ-28" edge="1">
          <mxGeometry width="160" relative="1" as="geometry">
            <mxPoint x="-3630" y="340" as="sourcePoint" />
            <mxPoint x="-3470" y="340" as="targetPoint" />
          </mxGeometry>
        </mxCell>
        <mxCell id="ysvRLKor3WXFB_mMOgGZ-31" value="" style="endArrow=diamondThin;endFill=0;endSize=24;html=1;rounded=0;exitX=0;exitY=0.5;exitDx=0;exitDy=0;entryX=1;entryY=0.5;entryDx=0;entryDy=0;edgeStyle=orthogonalEdgeStyle;" parent="1" source="ysvRLKor3WXFB_mMOgGZ-11" target="ysvRLKor3WXFB_mMOgGZ-29" edge="1">
          <mxGeometry width="160" relative="1" as="geometry">
            <mxPoint x="-3280" y="320" as="sourcePoint" />
            <mxPoint x="-3120" y="320" as="targetPoint" />
          </mxGeometry>
        </mxCell>
        <mxCell id="ysvRLKor3WXFB_mMOgGZ-32" value="1..*" style="edgeLabel;html=1;align=center;verticalAlign=middle;resizable=0;points=[];" parent="ysvRLKor3WXFB_mMOgGZ-31" vertex="1" connectable="0">
          <mxGeometry x="0.0285" y="-2" relative="1" as="geometry">
            <mxPoint x="-262" y="-115" as="offset" />
          </mxGeometry>
        </mxCell>
        <mxCell id="ysvRLKor3WXFB_mMOgGZ-33" value="ServiceDirector" style="swimlane;fontStyle=0;childLayout=stackLayout;horizontal=1;startSize=26;fillColor=none;horizontalStack=0;resizeParent=1;resizeParentMax=0;resizeLast=0;collapsible=1;marginBottom=0;whiteSpace=wrap;html=1;" parent="1" vertex="1">
          <mxGeometry x="-3570" y="-100" width="160" height="70" as="geometry" />
        </mxCell>
        <mxCell id="ysvRLKor3WXFB_mMOgGZ-34" value="&lt;div&gt;+ build()&lt;/div&gt;&lt;div&gt;+getConfiguratedObjects()&lt;br&gt;&lt;/div&gt;" style="text;strokeColor=none;fillColor=none;align=left;verticalAlign=top;spacingLeft=4;spacingRight=4;overflow=hidden;rotatable=0;points=[[0,0.5],[1,0.5]];portConstraint=eastwest;whiteSpace=wrap;html=1;" parent="ysvRLKor3WXFB_mMOgGZ-33" vertex="1">
          <mxGeometry y="26" width="160" height="44" as="geometry" />
        </mxCell>
        <mxCell id="ysvRLKor3WXFB_mMOgGZ-35" value="Use" style="endArrow=open;endSize=12;dashed=1;html=1;rounded=0;exitX=0.503;exitY=1.074;exitDx=0;exitDy=0;exitPerimeter=0;entryX=0.5;entryY=0;entryDx=0;entryDy=0;" parent="1" source="ysvRLKor3WXFB_mMOgGZ-34" target="ysvRLKor3WXFB_mMOgGZ-28" edge="1">
          <mxGeometry width="160" relative="1" as="geometry">
            <mxPoint x="-3460" y="70" as="sourcePoint" />
            <mxPoint x="-3300" y="70" as="targetPoint" />
          </mxGeometry>
        </mxCell>
        <mxCell id="ysvRLKor3WXFB_mMOgGZ-36" value="ProxiesComposite" style="swimlane;fontStyle=0;childLayout=stackLayout;horizontal=1;startSize=26;fillColor=none;horizontalStack=0;resizeParent=1;resizeParentMax=0;resizeLast=0;collapsible=1;marginBottom=0;whiteSpace=wrap;html=1;" parent="1" vertex="1">
          <mxGeometry x="-3110" y="-10" width="160" height="70" as="geometry" />
        </mxCell>
        <mxCell id="ysvRLKor3WXFB_mMOgGZ-37" value="+run()" style="text;strokeColor=none;fillColor=none;align=left;verticalAlign=top;spacingLeft=4;spacingRight=4;overflow=hidden;rotatable=0;points=[[0,0.5],[1,0.5]];portConstraint=eastwest;whiteSpace=wrap;html=1;" parent="ysvRLKor3WXFB_mMOgGZ-36" vertex="1">
          <mxGeometry y="26" width="160" height="44" as="geometry" />
        </mxCell>
        <mxCell id="ysvRLKor3WXFB_mMOgGZ-38" value="" style="endArrow=diamondThin;endFill=0;endSize=24;html=1;rounded=0;exitX=0;exitY=0.25;exitDx=0;exitDy=0;entryX=1;entryY=0.5;entryDx=0;entryDy=0;edgeStyle=orthogonalEdgeStyle;" parent="1" source="ysvRLKor3WXFB_mMOgGZ-10" target="ysvRLKor3WXFB_mMOgGZ-37" edge="1">
          <mxGeometry width="160" relative="1" as="geometry">
            <mxPoint x="-2450" y="560" as="sourcePoint" />
            <mxPoint x="-3090" y="320" as="targetPoint" />
          </mxGeometry>
        </mxCell>
        <mxCell id="ysvRLKor3WXFB_mMOgGZ-39" value="1..*" style="edgeLabel;html=1;align=center;verticalAlign=middle;resizable=0;points=[];" parent="ysvRLKor3WXFB_mMOgGZ-38" vertex="1" connectable="0">
          <mxGeometry x="0.0285" y="-2" relative="1" as="geometry">
            <mxPoint x="-52" y="-190" as="offset" />
          </mxGeometry>
        </mxCell>
        <mxCell id="ysvRLKor3WXFB_mMOgGZ-40" value="ProxiesManager" style="swimlane;fontStyle=0;childLayout=stackLayout;horizontal=1;startSize=26;fillColor=none;horizontalStack=0;resizeParent=1;resizeParentMax=0;resizeLast=0;collapsible=1;marginBottom=0;whiteSpace=wrap;html=1;" parent="1" vertex="1">
          <mxGeometry x="-3240" y="-280" width="160" height="70" as="geometry" />
        </mxCell>
        <mxCell id="ysvRLKor3WXFB_mMOgGZ-41" value="+runApplication()" style="text;strokeColor=none;fillColor=none;align=left;verticalAlign=top;spacingLeft=4;spacingRight=4;overflow=hidden;rotatable=0;points=[[0,0.5],[1,0.5]];portConstraint=eastwest;whiteSpace=wrap;html=1;" parent="ysvRLKor3WXFB_mMOgGZ-40" vertex="1">
          <mxGeometry y="26" width="160" height="44" as="geometry" />
        </mxCell>
        <mxCell id="ysvRLKor3WXFB_mMOgGZ-42" value="" style="endArrow=diamondThin;endFill=0;endSize=24;html=1;rounded=0;entryX=1;entryY=0.5;entryDx=0;entryDy=0;edgeStyle=orthogonalEdgeStyle;exitX=0.5;exitY=0;exitDx=0;exitDy=0;" parent="1" source="ysvRLKor3WXFB_mMOgGZ-36" target="ysvRLKor3WXFB_mMOgGZ-41" edge="1">
          <mxGeometry width="160" relative="1" as="geometry">
            <mxPoint x="-2900" y="-220" as="sourcePoint" />
            <mxPoint x="-3030" y="-90" as="targetPoint" />
          </mxGeometry>
        </mxCell>
        <mxCell id="ysvRLKor3WXFB_mMOgGZ-43" value="Use" style="endArrow=open;endSize=12;dashed=1;html=1;rounded=0;exitX=0;exitY=0.25;exitDx=0;exitDy=0;entryX=0.25;entryY=0;entryDx=0;entryDy=0;edgeStyle=orthogonalEdgeStyle;" parent="1" source="ysvRLKor3WXFB_mMOgGZ-40" target="ysvRLKor3WXFB_mMOgGZ-33" edge="1">
          <mxGeometry width="160" relative="1" as="geometry">
            <mxPoint x="-3660" y="-180" as="sourcePoint" />
            <mxPoint x="-3500" y="-180" as="targetPoint" />
          </mxGeometry>
        </mxCell>
        <mxCell id="ysvRLKor3WXFB_mMOgGZ-46" value="Extends" style="endArrow=block;endSize=16;endFill=0;html=1;rounded=0;entryX=0.493;entryY=1.014;entryDx=0;entryDy=0;entryPerimeter=0;" parent="1" target="ysvRLKor3WXFB_mMOgGZ-11" edge="1">
          <mxGeometry width="160" relative="1" as="geometry">
            <mxPoint x="-2691" y="600" as="sourcePoint" />
            <mxPoint x="-2530" y="420" as="targetPoint" />
          </mxGeometry>
        </mxCell>
        <mxCell id="ysvRLKor3WXFB_mMOgGZ-47" value="TimeoutProxy" style="swimlane;fontStyle=0;childLayout=stackLayout;horizontal=1;startSize=26;fillColor=none;horizontalStack=0;resizeParent=1;resizeParentMax=0;resizeLast=0;collapsible=1;marginBottom=0;whiteSpace=wrap;html=1;" parent="1" vertex="1">
          <mxGeometry x="-2770" y="600" width="160" height="70" as="geometry" />
        </mxCell>
        <mxCell id="ysvRLKor3WXFB_mMOgGZ-48" value="&lt;div&gt;+ ChangeConfiguration()&lt;/div&gt;&lt;div&gt;+ GetConfiguration()&lt;br&gt;&lt;/div&gt;" style="text;strokeColor=none;fillColor=none;align=left;verticalAlign=top;spacingLeft=4;spacingRight=4;overflow=hidden;rotatable=0;points=[[0,0.5],[1,0.5]];portConstraint=eastwest;whiteSpace=wrap;html=1;" parent="ysvRLKor3WXFB_mMOgGZ-47" vertex="1">
          <mxGeometry y="26" width="160" height="44" as="geometry" />
        </mxCell>
        <mxCell id="4_Apw1o6KSsV3HFSU-_T-1" value="" style="endArrow=diamondThin;endFill=0;endSize=24;html=1;rounded=0;entryX=0;entryY=0.5;entryDx=0;entryDy=0;edgeStyle=orthogonalEdgeStyle;" edge="1" parent="1" source="ysvRLKor3WXFB_mMOgGZ-28" target="ysvRLKor3WXFB_mMOgGZ-41">
          <mxGeometry width="160" relative="1" as="geometry">
            <mxPoint x="-3280" as="sourcePoint" />
            <mxPoint x="-3120" as="targetPoint" />
            <Array as="points">
              <mxPoint x="-3440" y="70" />
              <mxPoint x="-3330" y="70" />
              <mxPoint x="-3330" y="-232" />
            </Array>
          </mxGeometry>
        </mxCell>
        <mxCell id="4_Apw1o6KSsV3HFSU-_T-3" value="JsonReader" style="swimlane;fontStyle=0;childLayout=stackLayout;horizontal=1;startSize=26;fillColor=none;horizontalStack=0;resizeParent=1;resizeParentMax=0;resizeLast=0;collapsible=1;marginBottom=0;whiteSpace=wrap;html=1;" vertex="1" parent="1">
          <mxGeometry x="-3960" y="530" width="160" height="70" as="geometry" />
        </mxCell>
        <mxCell id="4_Apw1o6KSsV3HFSU-_T-4" value="&lt;div&gt;+ nextField()&lt;br&gt;&lt;/div&gt;" style="text;strokeColor=none;fillColor=none;align=left;verticalAlign=top;spacingLeft=4;spacingRight=4;overflow=hidden;rotatable=0;points=[[0,0.5],[1,0.5]];portConstraint=eastwest;whiteSpace=wrap;html=1;" vertex="1" parent="4_Apw1o6KSsV3HFSU-_T-3">
          <mxGeometry y="26" width="160" height="44" as="geometry" />
        </mxCell>
        <mxCell id="4_Apw1o6KSsV3HFSU-_T-5" value="Extends" style="endArrow=block;endSize=16;endFill=0;html=1;rounded=0;exitX=0.5;exitY=0;exitDx=0;exitDy=0;entryX=0.5;entryY=1;entryDx=0;entryDy=0;entryPerimeter=0;" edge="1" parent="1" source="ysvRLKor3WXFB_mMOgGZ-17" target="4_Apw1o6KSsV3HFSU-_T-4">
          <mxGeometry width="160" relative="1" as="geometry">
            <mxPoint x="-3750" y="650" as="sourcePoint" />
            <mxPoint x="-3590" y="650" as="targetPoint" />
          </mxGeometry>
        </mxCell>
      </root>
    </mxGraphModel>
  </diagram>
</mxfile>
